<?xml version="1.0" encoding="utf-8"?>
<!-- Generator: Adobe Illustrator 24.1.2, SVG Export Plug-In . SVG Version: 6.00 Build 0)  -->
<svg version="1.1" baseProfile="tiny" id="Layer_1" xmlns="http://www.w3.org/2000/svg" xmlns:xlink="http://www.w3.org/1999/xlink"
	 x="0px" y="0px" viewBox="0 0 196.9 196.9" overflow="visible" xml:space="preserve">
<path fill="#FFFFFF" d="M384.4,196.9H228.6c-11.4,0-20.6-9.2-20.6-20.6V20.6C208,9.2,217.2,0,228.6,0h155.8
	c11.4,0,20.6,9.2,20.6,20.6v155.8C404.9,187.7,395.7,196.9,384.4,196.9z"/>
<rect x="-215.5" fill="none" width="141.6" height="184.3"/>
<text transform="matrix(1.0719 0 0 1 242.1206 177.4379)" fill="#FF005C" font-family="'CalistoMT'" font-size="235.5121px">0</text>
<path fill="#FF005C" d="M176.4,196.9H20.6C9.2,196.9,0,187.7,0,176.4V20.6C0,9.2,9.2,0,20.6,0h155.8c11.4,0,20.6,9.2,20.6,20.6
	v155.8C196.9,187.7,187.7,196.9,176.4,196.9z"/>
<text transform="matrix(1.0719 0 0 1 34.1206 177.4379)" fill="#FFFFFF" font-family="'CalistoMT'" font-size="235.5121px">0</text>
</svg>
